<svg width="24px" height="24px" class="u-inlineBlock" viewBox="0 0 24 24"
    xmlns="http://www.w3.org/2000/svg" aria-hidden="true" focusable="false" style="vertical-align: middle;">
    <path d="M19.9085714,4.64499643 C19.9083929,4.64393214 19.9083929,4.64285 19.9085714,4.64178214 C19.8783571,4.50939643 19.8117857,4.38808214 19.7162857,4.29153214 C19.6208214,4.19497857 19.50025,4.12703214 19.3682143,4.09535357 C18.3039286,3.83571071 16.6296429,4.11249643 14.7742857,4.85535357 C12.9042857,5.60535357 11.1521429,6.7125 9.96785714,7.89892857 C9.58825,8.2765 9.23560714,8.68021429 8.9125,9.10714286 C8.115,9.07142857 7.4125,9.185 6.82071429,9.44321429 C4.75857143,10.3507143 4.16964286,12.6732143 4.01285714,13.6267857 C3.99017143,13.7622857 3.99905357,13.9011786 4.03881429,14.0326786 C4.07857857,14.1641786 4.14814643,14.2847143 4.24211071,14.3849286 C4.33607143,14.4851429 4.45189286,14.5623214 4.58055714,14.6104643 C4.70922143,14.6586071 4.84726071,14.6764286 4.98392857,14.6625 L4.98857143,14.6625 L7.28571429,14.4117857 C7.28732143,14.4284286 7.28907143,14.4442857 7.29075,14.4593571 L7.29075,14.4593929 C7.292,14.4708571 7.29321429,14.4818571 7.29428571,14.4925 C7.32378571,14.7724286 7.44860714,15.0336786 7.64785714,15.2325 L8.76892857,16.3542857 C8.96746429,16.5537857 9.22867857,16.6787857 9.50857143,16.7082143 L9.58535714,16.7164286 L9.33535714,19.0107143 L9.33535714,19.0153571 C9.32257143,19.1389286 9.33571429,19.2637857 9.37396429,19.382 C9.41217857,19.5001786 9.47467857,19.6091071 9.55739286,19.70175 C9.64010714,19.7944286 9.74125,19.8688214 9.85439286,19.9201786 C9.9675,19.9715357 10.0900714,19.9987143 10.2142857,20.0000002 C10.2639286,20.0000002 10.3135,19.9959643 10.3625,19.9878571 C11.3214286,19.8335714 13.6428571,19.2517857 14.5478571,17.1785714 C14.8039286,16.5907143 14.9171429,15.8910714 14.8853571,15.095 C15.3141786,14.7726071 15.7193929,14.4198929 16.0978571,14.0396429 C17.2917857,12.8517857 18.4025,11.1139286 19.1446429,9.27107143 C19.8835714,7.43678571 20.1617857,5.74999643 19.9085714,4.64499643 Z M16.085,10.8907143 C15.7915357,11.1844643 15.4175714,11.3846071 15.0103571,11.46575 C14.6031429,11.5469286 14.181,11.5055 13.7973571,11.3466786 C13.4136786,11.1878929 13.08575,10.9188571 12.855,10.5736429 C12.6242857,10.2284286 12.5011429,9.82253571 12.5011429,9.40732143 C12.5011429,8.99210714 12.6242857,8.58621429 12.855,8.241 C13.08575,7.89578571 13.4136786,7.62675 13.7973571,7.46796429 C14.181,7.30914286 14.6031429,7.26771429 15.0103571,7.34889286 C15.4175714,7.43003571 15.7915357,7.63017857 16.085,7.92392857 C16.2816786,8.11767857 16.4378929,8.34857143 16.5445,8.60325 C16.6511071,8.85792857 16.7060357,9.13125 16.7060357,9.40732143 C16.7060357,9.68339286 16.6511071,9.95671429 16.5445,10.2113929 C16.4378929,10.4660714 16.2816786,10.6969643 16.085,10.8907143 Z M14.6017857,8.45678382 C14.38125,8.45689286 14.1676071,8.5335 13.9972143,8.67346429 C13.8268214,8.81346429 13.7102143,9.00821429 13.6673214,9.2245 C13.6243929,9.44082143 13.6578214,9.66532143 13.7618571,9.85975 C13.8659286,10.0541786 14.0341786,10.2065357 14.2379286,10.2908214 C14.4417143,10.3751071 14.6684286,10.3861429 14.8794286,10.3220357 C15.0904286,10.2579286 15.2726786,10.1226429 15.3951071,9.93925 C15.5175357,9.75582143 15.5726071,9.53564286 15.5508929,9.31617857 C15.5291786,9.09671429 15.4320714,8.89160714 15.2760714,8.73571429 C15.1876071,8.64707143 15.0825,8.57678571 14.9667857,8.52892857 C14.8510714,8.48107143 14.727,8.45653571 14.6017857,8.45678382 Z M8.2475,16.7539286 C8.36246429,16.6753214 8.50214286,16.6414286 8.64035714,16.6585714 C8.79071429,16.6770357 8.92757143,16.7544643 9.02085714,16.8738214 C9.11414286,16.9931429 9.15621429,17.1446429 9.13785714,17.295 C9.08053571,17.7782857 8.86167857,18.2280357 8.51678571,18.5714286 C8.38607143,18.7021429 7.98821429,19.1 6.47142857,19.3142857 C6.03557857,19.3748571 5.59690714,19.413 5.15714286,19.4285715 L5.14285714,19.4285715 C5.06656786,19.4285715 4.99104643,19.4133571 4.92074643,19.3837143 C4.85044286,19.3540714 4.78678929,19.3106786 4.73352857,19.2560714 C4.68027143,19.2014286 4.63848929,19.1367143 4.61065,19.0656786 C4.58281071,18.9946429 4.569475,18.91875 4.57142857,18.8425 C4.58715,18.4030714 4.62553571,17.96475 4.68642857,17.5292857 C4.90023929,16.0140714 5.29741071,15.6157857 5.42835,15.4845 L5.42857143,15.4842857 C5.77179643,15.141 6.21946429,14.9216071 6.70107143,14.8607143 C6.81017857,14.8473214 6.92085714,14.8656429 7.01978571,14.9135714 C7.11871429,14.9614643 7.20175,15.0368929 7.25889286,15.1307857 C7.31603571,15.2247143 7.34489286,15.3331071 7.342,15.443 C7.33907143,15.5528929 7.30453571,15.6596071 7.2425,15.7503571 L6.80857143,16.5003571 C6.53035714,16.9846429 7.09035714,17.5189286 7.55857143,17.2146429 C7.79,17.0642857 8.01928571,16.91 8.2475,16.7539286 Z" style="fill: currentcolor;"></path>
</svg>