<?xml version="1.0" standalone="no"?>
<!DOCTYPE svg PUBLIC "-//W3C//DTD SVG 20010904//EN"
 "http://www.w3.org/TR/2001/REC-SVG-20010904/DTD/svg10.dtd">
<svg version="1.0"
        xmlns="http://www.w3.org/2000/svg" width="1524.000000pt" height="402.000000pt" viewBox="0 0 1524.000000 402.000000" preserveAspectRatio="xMidYMid meet">

        <g transform="translate(0.000000,402.000000) scale(0.100000,-0.100000)" fill="#1f0dd7" stroke="none">
                <path d="M1973 3870 c-60 -12 -114 -43 -156 -89 -63 -70 -72 -95 -72 -201 0
-111 8 -131 90 -220 29 -32 59 -68 66 -81 9 -16 15 -76 17 -175 l4 -150 -51
-65 c-77 -96 -101 -151 -101 -230 0 -94 24 -154 84 -215 61 -60 122 -84 215
-84 112 1 204 59 259 165 21 40 26 64 26 125 1 96 -21 146 -103 234 -33 35
-62 75 -65 88 -3 13 -8 82 -11 155 -7 150 -7 151 74 251 76 94 97 185 67 286
-31 102 -107 173 -212 201 -64 16 -70 17 -131 5z m139 -52 c54 -16 132 -88
153 -140 20 -51 22 -130 5 -182 -6 -20 -34 -65 -62 -99 -82 -102 -82 -100 -75
-279 3 -91 11 -167 18 -180 6 -13 36 -49 66 -80 69 -73 93 -125 93 -203 0
-136 -92 -238 -225 -252 -190 -20 -334 182 -250 352 13 28 47 78 75 113 l50
63 0 152 c0 84 -5 169 -10 189 -6 21 -36 64 -70 102 -72 80 -90 113 -97 180
-19 181 151 317 329 264z"/>
                <path d="M2606 3836 c-163 -61 -216 -263 -104 -391 68 -78 144 -103 252 -86
71 12 89 6 204 -74 88 -61 99 -76 127 -178 37 -136 173 -213 306 -173 215 63
243 352 44 459 -35 19 -54 22 -152 20 l-111 -3 -90 59 c-49 32 -98 68 -109 80
-11 12 -28 52 -37 89 -31 128 -111 201 -228 208 -40 3 -77 -1 -102 -10z m190
-61 c52 -30 77 -70 99 -154 9 -35 23 -74 32 -87 19 -29 208 -159 245 -168 15
-3 57 -2 93 3 83 12 149 -6 198 -52 133 -127 44 -347 -142 -347 -97 0 -169 57
-197 158 -32 116 -38 123 -157 205 -113 78 -116 79 -220 71 -74 -5 -100 -3
-132 10 -112 47 -158 171 -105 280 51 106 180 143 286 81z"/>
                <path d="M1282 3794 c-72 -36 -122 -105 -136 -189 -16 -91 -24 -102 -127 -180
l-100 -75 -97 0 c-111 0 -156 -16 -210 -71 -46 -46 -63 -82 -69 -145 -8 -74
12 -135 60 -191 53 -59 105 -83 182 -83 130 0 227 84 249 215 16 90 23 101
127 179 l100 76 97 0 c72 0 107 5 137 19 45 20 99 71 122 115 21 41 28 128 13
181 -16 56 -81 132 -135 156 -61 28 -149 25 -213 -7z m211 -41 c111 -65 137
-215 54 -310 -50 -56 -99 -74 -206 -72 -103 2 -101 3 -243 -110 -68 -54 -79
-67 -93 -113 -8 -28 -15 -61 -15 -72 0 -12 -13 -44 -30 -72 -23 -41 -41 -58
-82 -78 -57 -28 -92 -32 -153 -15 -71 20 -145 119 -145 195 0 41 23 96 53 131
49 56 99 74 206 72 103 -2 103 -2 243 109 68 54 79 67 93 114 8 28 15 61 15
72 0 12 13 44 30 72 40 70 110 108 188 100 29 -2 67 -13 85 -23z"/>
                <path d="M3439 2836 c-75 -27 -128 -78 -182 -177 -20 -36 -42 -71 -49 -77 -14
-11 -232 -94 -280 -106 -20 -4 -52 3 -110 26 -181 71 -340 22 -415 -126 -98
-194 41 -426 256 -426 35 0 81 5 101 11 65 20 129 77 172 154 22 39 50 80 62
93 28 29 258 114 306 113 19 0 64 -12 100 -28 85 -35 192 -38 261 -7 102 47
169 151 169 265 0 94 -24 154 -84 215 -34 33 -68 56 -100 67 -58 20 -156 21
-207 3z m182 -41 c132 -47 203 -194 154 -321 -55 -146 -202 -203 -355 -140
-108 45 -128 44 -275 -9 -71 -26 -143 -55 -160 -65 -16 -10 -45 -45 -64 -77
-72 -123 -78 -130 -142 -162 -45 -23 -76 -31 -113 -31 -108 0 -211 80 -242
186 -19 67 -14 115 20 182 30 59 58 85 119 112 70 31 135 28 237 -10 61 -23
96 -30 123 -27 56 8 267 86 304 114 18 13 51 58 75 100 24 42 59 89 79 105 70
56 157 72 240 43z"/>
                <path d="M12900 2635 l0 -165 -130 0 -130 0 0 -110 0 -110 130 0 130 0 0 -360
0 -360 125 0 125 0 0 360 0 360 130 0 130 0 0 110 0 110 -130 0 -130 0 0 165
0 165 -125 0 -125 0 0 -165z"/>
                <path d="M8860 2160 l0 -630 125 0 125 0 0 248 c0 136 5 263 10 283 15 52 49
99 99 134 39 27 50 30 124 30 73 0 86 -3 124 -28 48 -33 86 -87 102 -143 6
-23 11 -136 11 -275 l0 -236 31 -7 c17 -3 74 -6 125 -6 l94 0 0 274 c0 246 -2
280 -20 339 -46 148 -191 280 -349 317 -79 19 -233 9 -295 -18 -27 -12 -50
-22 -52 -22 -2 0 -4 83 -4 185 l0 185 -125 0 -125 0 0 -630z"/>
                <path d="M499 2745 c-57 -18 -142 -93 -171 -149 -14 -27 -23 -67 -26 -117 -4
-66 -1 -84 20 -130 33 -73 66 -109 130 -144 48 -27 62 -30 143 -30 83 1 96 4
165 38 41 20 81 37 90 37 24 0 260 -69 291 -85 15 -8 45 -43 67 -77 54 -87
118 -143 183 -162 113 -34 208 -13 294 66 88 80 118 198 78 314 -24 71 -112
157 -183 178 -78 23 -145 20 -215 -10 -148 -64 -126 -62 -276 -20 -74 21 -144
45 -157 53 -13 8 -43 44 -67 81 -51 80 -84 112 -145 142 -57 29 -157 36 -221
15z m211 -60 c51 -26 73 -48 118 -120 55 -89 77 -103 223 -146 74 -21 151 -39
173 -39 23 0 69 14 115 35 101 45 144 51 216 30 77 -22 147 -90 169 -166 20
-66 20 -82 0 -150 -22 -74 -89 -141 -163 -163 -68 -20 -84 -20 -149 -1 -66 20
-111 59 -167 146 -24 37 -56 76 -71 85 -35 24 -278 94 -323 94 -22 0 -67 -15
-111 -37 -126 -62 -240 -50 -324 33 -61 62 -90 165 -66 240 51 161 213 233
360 159z"/>
                <path d="M6450 2473 c-13 -3 -46 -13 -72 -24 -48 -19 -48 -19 -48 1 0 19 -7
20 -125 20 l-125 0 0 -470 0 -470 125 0 125 0 0 256 c0 285 4 312 59 375 46
55 100 79 179 79 l62 0 0 120 0 120 -77 -1 c-43 -1 -89 -4 -103 -6z"/>
                <path d="M8105 2466 c-27 -7 -62 -18 -77 -24 -25 -10 -28 -9 -28 8 0 19 -7 20
-125 20 l-125 0 0 -615 0 -615 125 0 125 0 0 176 c0 164 1 176 18 169 67 -30
162 -46 237 -41 184 12 335 108 414 264 92 182 51 396 -104 540 -67 63 -123
94 -212 117 -69 18 -179 18 -248 1z m248 -263 c23 -16 55 -48 72 -72 27 -39
30 -50 30 -121 0 -71 -3 -82 -30 -121 -17 -24 -53 -57 -79 -74 -42 -25 -59
-30 -116 -30 -57 0 -74 5 -115 30 -66 41 -107 108 -113 184 -5 64 10 108 54
160 71 84 211 105 297 44z"/>
                <path d="M12278 2456 c-64 -21 -68 -21 -68 -4 0 16 -11 18 -130 18 l-130 0 0
-470 0 -470 124 0 124 0 4 273 c4 254 6 275 26 313 42 81 115 124 212 124 l60
0 0 120 0 120 -77 0 c-55 0 -98 -7 -145 -24z"/>
                <path d="M14888 2456 c-64 -21 -68 -21 -68 -4 0 16 -11 18 -130 18 l-130 0 0
-470 0 -470 130 0 130 0 0 269 0 269 28 53 c39 75 100 112 192 117 66 4 68 5
74 34 3 17 6 70 6 119 l0 89 -82 0 c-60 0 -102 -7 -150 -24z"/>
                <path d="M5318 2455 c-79 -21 -138 -55 -204 -118 -170 -158 -197 -398 -68
-592 59 -89 143 -152 256 -191 76 -27 232 -24 312 5 33 11 63 21 67 21 12 0
-1 -140 -17 -187 -21 -57 -80 -108 -150 -129 -49 -14 -65 -15 -112 -4 -91 20
-182 128 -182 214 0 14 -16 16 -130 16 l-130 0 6 -47 c26 -223 191 -388 421
-425 105 -16 244 14 341 76 52 32 135 126 162 181 49 100 50 117 50 673 l0
522 -130 0 -130 0 0 -25 c0 -23 -2 -25 -22 -14 -71 38 -245 50 -340 24z m243
-253 c36 -18 64 -43 84 -72 27 -41 30 -52 30 -127 0 -74 -3 -85 -30 -124 -17
-24 -52 -57 -79 -73 -40 -25 -58 -30 -114 -30 -55 -1 -75 4 -113 26 -128 75
-156 237 -60 349 70 83 183 103 282 51z"/>
                <path d="M6968 2451 c-224 -72 -368 -299 -329 -519 32 -179 154 -318 331 -378
78 -26 223 -24 310 4 81 27 80 27 80 -3 l0 -25 125 0 125 0 0 465 0 465 -130
0 c-119 0 -130 -2 -130 -18 0 -17 -4 -17 -67 4 -87 30 -230 32 -315 5z m247
-240 c129 -59 175 -219 97 -334 -103 -149 -323 -134 -398 26 -55 120 -8 253
111 308 52 24 138 24 190 0z"/>
                <path d="M11255 2460 c-282 -50 -458 -311 -390 -575 22 -84 60 -147 124 -208
104 -99 200 -137 347 -137 143 0 247 44 345 147 47 49 99 127 99 148 0 3 -63
5 -141 5 -128 0 -144 -2 -171 -21 -70 -50 -162 -57 -239 -18 -36 18 -99 81
-99 99 0 6 128 10 340 10 l340 0 0 79 c0 255 -185 453 -441 474 -35 3 -86 2
-114 -3z m183 -259 c37 -19 102 -85 102 -103 0 -5 -92 -8 -205 -8 -142 0 -205
3 -205 11 0 37 81 104 144 120 46 12 119 3 164 -20z"/>
                <path d="M13865 2460 c-196 -35 -349 -178 -391 -367 -33 -149 15 -306 129
-417 106 -103 212 -142 371 -134 111 6 184 32 269 96 59 45 147 157 147 188 0
11 -26 14 -144 14 -87 0 -147 -4 -151 -10 -4 -6 -25 -20 -48 -32 -54 -27 -138
-28 -198 -1 -46 21 -113 88 -104 104 4 5 142 9 339 9 l334 0 6 44 c15 99 -33
252 -105 340 -104 125 -294 194 -454 166z m151 -245 c32 -9 62 -27 85 -52 74
-80 87 -73 -150 -73 -156 0 -211 3 -211 12 0 6 22 33 49 59 68 65 135 82 227
54z"/>
                <path d="M9840 2458 c0 -2 85 -210 188 -463 l187 -460 125 -3 125 -2 182 447
c101 247 185 456 189 466 6 16 -5 17 -134 17 l-141 0 -39 -102 c-21 -57 -70
-185 -108 -285 -38 -101 -71 -183 -74 -183 -3 0 -52 127 -110 283 l-105 282
-143 3 c-78 1 -142 1 -142 0z"/>
                <path d="M3654 2176 c-17 -8 -47 -28 -68 -46 -90 -79 -106 -190 -47 -319 l34
-74 -28 -101 c-39 -141 -49 -158 -112 -196 -97 -59 -143 -133 -143 -230 0 -94
51 -179 134 -223 57 -30 164 -30 222 0 47 25 101 82 120 129 25 59 18 151 -16
222 -17 35 -30 75 -30 88 0 39 59 226 78 247 9 11 35 31 57 45 102 63 139 124
139 227 0 52 -5 80 -21 110 -27 51 -78 100 -125 119 -46 19 -152 20 -194 2z
m208 -62 c61 -42 88 -95 88 -169 0 -84 -27 -128 -113 -185 -37 -25 -74 -56
-83 -68 -9 -13 -31 -77 -49 -142 -37 -131 -36 -144 10 -243 22 -48 26 -69 23
-113 -9 -107 -97 -187 -204 -186 -131 1 -229 125 -196 248 18 66 45 99 118
146 75 47 86 65 125 202 36 126 36 146 -1 224 -52 110 -35 216 43 276 49 38
76 46 140 43 44 -3 67 -10 99 -33z"/>
                <path d="M299 2082 c-180 -94 -179 -333 1 -439 94 -55 94 -55 139 -181 42
-119 42 -119 26 -163 -41 -110 -46 -135 -40 -183 16 -128 118 -219 245 -219
147 -1 262 124 247 268 -10 97 -52 152 -167 218 -52 31 -57 36 -88 115 -59
151 -60 162 -29 250 46 130 33 206 -48 287 -81 82 -187 99 -286 47z m172 -23
c76 -26 129 -88 144 -171 5 -28 -1 -59 -25 -130 l-32 -93 38 -114 c47 -140 64
-167 134 -208 85 -49 99 -61 119 -101 41 -82 33 -161 -22 -227 -94 -115 -276
-94 -338 40 -26 55 -24 121 6 199 14 37 25 77 25 90 0 14 -18 75 -41 138 -45
125 -66 152 -157 200 -32 17 -62 43 -79 70 -24 36 -28 52 -28 112 0 62 4 77
29 113 18 27 46 51 79 68 56 27 96 31 148 14z"/>
                <path d="M2397 1830 c-84 -21 -162 -83 -203 -160 -26 -49 -27 -210 -1 -257 50
-93 126 -145 240 -167 116 -23 112 -19 240 -189 l67 -88 0 -117 c0 -102 3
-124 24 -167 28 -60 85 -118 146 -148 34 -16 63 -21 120 -21 91 0 149 23 210
84 113 113 114 297 2 413 -49 51 -96 74 -188 92 -42 8 -87 22 -100 30 -24 16
-125 138 -173 209 -24 37 -26 47 -26 155 0 97 -4 123 -22 162 -27 59 -92 125
-147 150 -52 23 -138 31 -189 19z m168 -59 c53 -24 104 -75 128 -130 16 -36
19 -65 18 -153 -1 -76 3 -117 13 -136 25 -49 176 -236 205 -254 15 -10 63 -25
107 -34 43 -9 95 -24 114 -34 80 -41 130 -127 130 -225 0 -141 -106 -246 -249
-246 -70 -1 -115 17 -169 65 -64 58 -82 114 -81 246 1 127 8 110 -114 268 -43
56 -92 109 -109 118 -16 8 -64 22 -106 30 -91 17 -153 51 -192 106 -73 101
-62 246 27 330 69 65 194 88 278 49z"/>
                <path d="M1620 1793 c-64 -23 -142 -105 -165 -172 -15 -45 -16 -72 -10 -168
l7 -115 -83 -125 c-47 -70 -94 -130 -109 -138 -14 -7 -55 -21 -90 -30 -83 -22
-127 -45 -172 -92 -54 -56 -80 -121 -80 -203 0 -268 323 -395 506 -200 67 72
80 108 76 215 -1 50 -3 109 -3 132 -1 37 8 57 78 159 44 64 93 125 109 135 16
10 60 25 97 34 124 31 203 102 235 213 18 61 14 139 -10 197 -20 47 -92 122
-141 148 -54 28 -182 33 -245 10z m226 -51 c125 -64 172 -213 108 -339 -37
-72 -95 -114 -193 -138 -97 -23 -125 -45 -203 -155 -108 -152 -110 -158 -103
-297 8 -133 0 -164 -57 -229 -94 -107 -274 -110 -370 -8 -67 72 -87 187 -47
274 38 85 94 126 212 156 35 9 79 24 96 35 18 11 66 72 117 149 l87 130 -7
116 c-6 95 -4 125 10 167 21 62 84 128 145 150 58 22 151 16 205 -11z"/>
                <path d="M2412 657 c-18 -5 -62 -36 -98 -68 l-65 -57 -114 -7 c-63 -4 -125 -5
-138 -1 -12 3 -51 28 -85 55 -122 98 -247 97 -347 -4 -82 -81 -99 -187 -47
-286 82 -157 282 -181 407 -49 49 52 71 58 207 62 l126 3 38 -32 c76 -64 124
-87 191 -91 86 -6 140 16 196 78 66 73 84 160 52 251 -19 54 -76 115 -130 140
-45 21 -139 24 -193 6z m173 -46 c71 -32 125 -113 125 -187 0 -74 -63 -162
-137 -190 -79 -30 -155 -7 -257 79 l-38 32 -132 0 c-72 -1 -143 -4 -158 -8
-15 -4 -55 -32 -88 -62 -34 -29 -77 -59 -97 -66 -55 -18 -131 -7 -180 25 -49
33 -93 111 -93 165 0 39 31 114 58 144 33 37 94 61 152 61 62 -1 85 -11 150
-64 25 -20 55 -42 67 -49 23 -12 228 -16 282 -5 17 4 59 31 96 64 91 81 167
99 250 61z"/>
        </g>
</svg>
